<svg width="120" height="120" viewBox="0 0 120 120" fill="none" xmlns="http://www.w3.org/2000/svg">
<path fill-rule="evenodd" clip-rule="evenodd" d="M52 16H20V20H16V24H13V28H10V64H16V68H20V72H24V76H28V80H32V84H36V88H40V92H44V96H46H48V100H51.1922V104H53.1922V108H66.8078V104H68.8078V100H72V96H74H76V92H80V88H84V84H88V80H92V76H96V72H100V68H104V64H110V28H107V24H104V20H100V16H68V20H64V24H60H56V20H52V16Z" fill="#F23B00"/>
<path fill-rule="evenodd" clip-rule="evenodd" d="M24 12H28H32H36H40H44H48V16H44H40H36H32H28H24V12ZM20 20V16H24V20H20ZM16 24V20H20V24H16ZM12 28V24H16V28H12ZM12 64H8V60V56V52V48V44V40V36V32V28H12V32V36V40V44V48V52V56V60V64ZM16 68H12V64H16V68ZM20 72H16V68H20V72ZM24 76H20V72H24V76ZM28 80H24V76H28V80ZM32 84H28V80H32V84ZM36 88H32V84H36V88ZM40 92H36V88H40V92ZM44 96H40V92H44V96ZM48 100H44V96H48V100ZM52 104H48V100H52V104ZM56 108H52V104H56V108ZM64 108V112H60H56V108H60H64ZM68 104V108H64V104H68ZM72 100V104H68V100H72ZM76 96V100H72V96H76ZM80 92V96H76V92H80ZM84 88V92H80V88H84ZM88 84V88H84V84H88ZM92 80V84H88V80H92ZM96 76V80H92V76H96ZM100 72V76H96V72H100ZM104 68V72H100V68H104ZM108 64V68H104V64H108ZM108 28H112V32V36V40V44V48V52V56V60V64H108V60V56V52V48V44V40V36V32V28ZM104 24H108V28H104V24ZM100 20H104V24H100V20ZM96 16H100V20H96V16ZM72 16V12H76H80H84H88H92H96V16H92H88H84H80H76H72ZM68 20V16H72V20H68ZM64 24H68V20H64V24ZM60 28H64V24H60H56V20H52V16H48V20H52V24H56V28H60Z" fill="white"/>
<rect x="88" y="28" width="8.57343" height="10.9767" fill="white"/>
<rect x="88" y="42.5114" width="8.57343" height="10.9767" fill="white"/>
<rect x="88" y="53.0233" width="8.57343" height="12.0236" fill="white"/>
<rect x="79.4266" y="58.0702" width="8.57343" height="6.97668" fill="white"/>
</svg>
